%TF.GenerationSoftware,KiCad,Pcbnew,7.0.8*%
%TF.CreationDate,2024-05-03T09:25:26+02:00*%
%TF.ProjectId,SPROJ2 G3_1,5350524f-4a32-4204-9733-5f312e6b6963,rev?*%
%TF.SameCoordinates,Original*%
%TF.FileFunction,Legend,Bot*%
%TF.FilePolarity,Positive*%
%FSLAX46Y46*%
G04 Gerber Fmt 4.6, Leading zero omitted, Abs format (unit mm)*
G04 Created by KiCad (PCBNEW 7.0.8) date 2024-05-03 09:25:26*
%MOMM*%
%LPD*%
G01*
G04 APERTURE LIST*
G04 Aperture macros list*
%AMRoundRect*
0 Rectangle with rounded corners*
0 $1 Rounding radius*
0 $2 $3 $4 $5 $6 $7 $8 $9 X,Y pos of 4 corners*
0 Add a 4 corners polygon primitive as box body*
4,1,4,$2,$3,$4,$5,$6,$7,$8,$9,$2,$3,0*
0 Add four circle primitives for the rounded corners*
1,1,$1+$1,$2,$3*
1,1,$1+$1,$4,$5*
1,1,$1+$1,$6,$7*
1,1,$1+$1,$8,$9*
0 Add four rect primitives between the rounded corners*
20,1,$1+$1,$2,$3,$4,$5,0*
20,1,$1+$1,$4,$5,$6,$7,0*
20,1,$1+$1,$6,$7,$8,$9,0*
20,1,$1+$1,$8,$9,$2,$3,0*%
G04 Aperture macros list end*
%ADD10C,1.620000*%
%ADD11RoundRect,0.250000X0.350000X0.625000X-0.350000X0.625000X-0.350000X-0.625000X0.350000X-0.625000X0*%
%ADD12O,1.200000X1.750000*%
%ADD13RoundRect,0.250000X0.625000X-0.350000X0.625000X0.350000X-0.625000X0.350000X-0.625000X-0.350000X0*%
%ADD14O,1.750000X1.200000*%
%ADD15RoundRect,0.250000X-0.350000X-0.625000X0.350000X-0.625000X0.350000X0.625000X-0.350000X0.625000X0*%
%ADD16RoundRect,0.250000X-0.625000X0.350000X-0.625000X-0.350000X0.625000X-0.350000X0.625000X0.350000X0*%
%ADD17O,2.204000X1.204000*%
G04 APERTURE END LIST*
%LPC*%
D10*
%TO.C,P2*%
X141499999Y-121925000D03*
X138999999Y-124425000D03*
X136499999Y-121925000D03*
%TD*%
D11*
%TO.C,J8*%
X128250000Y-71750000D03*
D12*
X126250000Y-71750000D03*
X124250000Y-71750000D03*
X122250000Y-71750000D03*
%TD*%
D13*
%TO.C,J13*%
X127950000Y-86000000D03*
D14*
X127950000Y-84000000D03*
%TD*%
D11*
%TO.C,J7*%
X120750000Y-93300000D03*
D12*
X118750000Y-93300000D03*
%TD*%
D15*
%TO.C,J10*%
X157500000Y-98250000D03*
D12*
X159500000Y-98250000D03*
%TD*%
D11*
%TO.C,J2*%
X144250000Y-71750000D03*
D12*
X142250000Y-71750000D03*
X140250000Y-71750000D03*
X138250000Y-71750000D03*
%TD*%
D13*
%TO.C,J3*%
X166500000Y-84750000D03*
D14*
X166500000Y-82750000D03*
X166500000Y-80750000D03*
X166500000Y-78750000D03*
%TD*%
D15*
%TO.C,J5*%
X140250000Y-135750000D03*
D12*
X142250000Y-135750000D03*
%TD*%
D13*
%TO.C,J4*%
X165000000Y-132251000D03*
D14*
X165000000Y-130251000D03*
X165000000Y-128251000D03*
%TD*%
D11*
%TO.C,J1*%
X144250000Y-79000000D03*
D12*
X142250000Y-79000000D03*
X140250000Y-79000000D03*
X138250000Y-79000000D03*
%TD*%
D10*
%TO.C,P1*%
X131500000Y-121500000D03*
X129000000Y-119000000D03*
X131500000Y-116500000D03*
%TD*%
D15*
%TO.C,J9*%
X157500000Y-92750000D03*
D12*
X159500000Y-92750000D03*
%TD*%
D15*
%TO.C,J6*%
X128200000Y-78200000D03*
D12*
X130200000Y-78200000D03*
%TD*%
D16*
%TO.C,J11*%
X150750000Y-88250000D03*
D14*
X150750000Y-90250000D03*
X150750000Y-92250000D03*
X150750000Y-94250000D03*
X150750000Y-96250000D03*
%TD*%
D17*
%TO.C,J14*%
X117550000Y-77430000D03*
X117550000Y-86070000D03*
X113750000Y-77430000D03*
X113750000Y-86070000D03*
%TD*%
D16*
%TO.C,J12*%
X117500000Y-128250000D03*
D14*
X117500000Y-130250000D03*
X117500000Y-132250000D03*
%TD*%
%LPD*%
M02*
