%TF.GenerationSoftware,KiCad,Pcbnew,7.0.8*%
%TF.CreationDate,2024-05-03T09:25:26+02:00*%
%TF.ProjectId,SPROJ2 G3_1,5350524f-4a32-4204-9733-5f312e6b6963,rev?*%
%TF.SameCoordinates,Original*%
%TF.FileFunction,Profile,NP*%
%FSLAX46Y46*%
G04 Gerber Fmt 4.6, Leading zero omitted, Abs format (unit mm)*
G04 Created by KiCad (PCBNEW 7.0.8) date 2024-05-03 09:25:26*
%MOMM*%
%LPD*%
G01*
G04 APERTURE LIST*
%TA.AperFunction,Profile*%
%ADD10C,0.200000*%
%TD*%
G04 APERTURE END LIST*
D10*
X113750000Y-141500000D02*
X168750000Y-141500000D01*
X170750000Y-115000000D02*
X166921573Y-115000000D01*
X111750000Y-69500000D02*
X111750000Y-94000000D01*
X115850000Y-70000000D02*
G75*
G03*
X115850000Y-70000000I-1600000J0D01*
G01*
X113750000Y-67500000D02*
G75*
G03*
X111750000Y-69500000I0J-2000000D01*
G01*
X168750000Y-67500000D02*
X113750000Y-67500000D01*
X170750000Y-94000000D02*
X170750000Y-69500000D01*
X169850000Y-139000000D02*
G75*
G03*
X169850000Y-139000000I-1600000J0D01*
G01*
X111750000Y-115000000D02*
X111750000Y-139500000D01*
X166921573Y-115000000D02*
X166921573Y-94000000D01*
X170750000Y-69500000D02*
G75*
G03*
X168750000Y-67500000I-2000000J0D01*
G01*
X166921573Y-94000000D02*
X170750000Y-94000000D01*
X170750000Y-139500000D02*
X170750000Y-115000000D01*
X168750000Y-141500000D02*
G75*
G03*
X170750000Y-139500000I0J2000000D01*
G01*
X111750000Y-94000000D02*
X115578427Y-94000000D01*
X169850000Y-70000000D02*
G75*
G03*
X169850000Y-70000000I-1600000J0D01*
G01*
X115578427Y-115000000D02*
X111750000Y-115000000D01*
X115578427Y-94000000D02*
X115578427Y-115000000D01*
X115850000Y-139000000D02*
G75*
G03*
X115850000Y-139000000I-1600000J0D01*
G01*
X111750000Y-139500000D02*
G75*
G03*
X113750000Y-141500000I2000000J0D01*
G01*
M02*
