%TF.GenerationSoftware,KiCad,Pcbnew,7.0.8*%
%TF.CreationDate,2024-05-03T09:25:26+02:00*%
%TF.ProjectId,SPROJ2 G3_1,5350524f-4a32-4204-9733-5f312e6b6963,rev?*%
%TF.SameCoordinates,Original*%
%TF.FileFunction,Paste,Top*%
%TF.FilePolarity,Positive*%
%FSLAX46Y46*%
G04 Gerber Fmt 4.6, Leading zero omitted, Abs format (unit mm)*
G04 Created by KiCad (PCBNEW 7.0.8) date 2024-05-03 09:25:26*
%MOMM*%
%LPD*%
G01*
G04 APERTURE LIST*
G04 Aperture macros list*
%AMRoundRect*
0 Rectangle with rounded corners*
0 $1 Rounding radius*
0 $2 $3 $4 $5 $6 $7 $8 $9 X,Y pos of 4 corners*
0 Add a 4 corners polygon primitive as box body*
4,1,4,$2,$3,$4,$5,$6,$7,$8,$9,$2,$3,0*
0 Add four circle primitives for the rounded corners*
1,1,$1+$1,$2,$3*
1,1,$1+$1,$4,$5*
1,1,$1+$1,$6,$7*
1,1,$1+$1,$8,$9*
0 Add four rect primitives between the rounded corners*
20,1,$1+$1,$2,$3,$4,$5,0*
20,1,$1+$1,$4,$5,$6,$7,0*
20,1,$1+$1,$6,$7,$8,$9,0*
20,1,$1+$1,$8,$9,$2,$3,0*%
G04 Aperture macros list end*
%ADD10RoundRect,0.250000X0.450000X-0.350000X0.450000X0.350000X-0.450000X0.350000X-0.450000X-0.350000X0*%
%ADD11RoundRect,0.250000X0.350000X0.450000X-0.350000X0.450000X-0.350000X-0.450000X0.350000X-0.450000X0*%
%ADD12R,1.528000X0.700000*%
%ADD13RoundRect,0.250000X-0.070711X0.565685X-0.565685X0.070711X0.070711X-0.565685X0.565685X-0.070711X0*%
%ADD14RoundRect,0.250000X-0.475000X0.337500X-0.475000X-0.337500X0.475000X-0.337500X0.475000X0.337500X0*%
%ADD15RoundRect,0.250000X0.475000X-0.337500X0.475000X0.337500X-0.475000X0.337500X-0.475000X-0.337500X0*%
%ADD16RoundRect,0.250000X0.337500X0.475000X-0.337500X0.475000X-0.337500X-0.475000X0.337500X-0.475000X0*%
%ADD17RoundRect,0.250000X-0.350000X-0.450000X0.350000X-0.450000X0.350000X0.450000X-0.350000X0.450000X0*%
%ADD18R,1.800000X4.500000*%
%ADD19RoundRect,0.250000X-0.337500X-0.475000X0.337500X-0.475000X0.337500X0.475000X-0.337500X0.475000X0*%
%ADD20RoundRect,0.150000X-0.587500X-0.150000X0.587500X-0.150000X0.587500X0.150000X-0.587500X0.150000X0*%
%ADD21RoundRect,0.250000X-0.250000X0.250000X-0.250000X-0.250000X0.250000X-0.250000X0.250000X0.250000X0*%
%ADD22RoundRect,0.250000X-0.450000X0.350000X-0.450000X-0.350000X0.450000X-0.350000X0.450000X0.350000X0*%
%ADD23R,0.600000X1.500000*%
%ADD24R,1.500000X0.600000*%
%ADD25R,2.600000X8.200000*%
%ADD26R,2.000000X2.400000*%
%ADD27R,1.600000X3.000000*%
%ADD28R,5.800000X6.200000*%
%ADD29R,0.600000X1.400000*%
%ADD30R,1.475000X0.450000*%
%ADD31R,2.460000X2.310000*%
%ADD32RoundRect,0.250000X0.250000X0.250000X-0.250000X0.250000X-0.250000X-0.250000X0.250000X-0.250000X0*%
%ADD33RoundRect,0.250000X-0.565685X-0.070711X-0.070711X-0.565685X0.565685X0.070711X0.070711X0.565685X0*%
%ADD34R,1.150000X0.700000*%
%ADD35R,1.150000X0.800000*%
%ADD36R,1.150000X0.900000*%
%ADD37RoundRect,0.250000X0.550000X-1.500000X0.550000X1.500000X-0.550000X1.500000X-0.550000X-1.500000X0*%
G04 APERTURE END LIST*
D10*
%TO.C,R22*%
X164750000Y-92500000D03*
X164750000Y-90500000D03*
%TD*%
D11*
%TO.C,R17*%
X140000000Y-98500000D03*
X138000000Y-98500000D03*
%TD*%
D12*
%TO.C,U2*%
X152078000Y-126250000D03*
X152078000Y-127520000D03*
X152078000Y-128790000D03*
X152078000Y-130060000D03*
X152078000Y-131330000D03*
X152078000Y-132600000D03*
X152078000Y-133870000D03*
X157500000Y-133870000D03*
X157500000Y-132600000D03*
X157500000Y-131330000D03*
X157500000Y-130060000D03*
X157500000Y-128790000D03*
X157500000Y-127520000D03*
X157500000Y-126250000D03*
%TD*%
D13*
%TO.C,R4*%
X144707107Y-131042893D03*
X143292893Y-132457107D03*
%TD*%
D14*
%TO.C,C20*%
X133000000Y-125212500D03*
X133000000Y-127287500D03*
%TD*%
D15*
%TO.C,C9*%
X133250000Y-105787500D03*
X133250000Y-103712500D03*
%TD*%
D10*
%TO.C,R14*%
X122000000Y-99250000D03*
X122000000Y-97250000D03*
%TD*%
D16*
%TO.C,C21*%
X154037500Y-124250000D03*
X151962500Y-124250000D03*
%TD*%
D17*
%TO.C,R5*%
X152000000Y-122250000D03*
X154000000Y-122250000D03*
%TD*%
D18*
%TO.C,L1*%
X129250000Y-93750000D03*
X125950000Y-93750000D03*
%TD*%
D10*
%TO.C,R29*%
X125000000Y-137750000D03*
X125000000Y-135750000D03*
%TD*%
D19*
%TO.C,C18*%
X119962500Y-104750000D03*
X122037500Y-104750000D03*
%TD*%
D20*
%TO.C,Q1*%
X120062500Y-101050000D03*
X120062500Y-102950000D03*
X121937500Y-102000000D03*
%TD*%
D19*
%TO.C,C7*%
X159712500Y-131250000D03*
X161787500Y-131250000D03*
%TD*%
D16*
%TO.C,C19*%
X126787500Y-99500000D03*
X124712500Y-99500000D03*
%TD*%
D21*
%TO.C,D2*%
X124250000Y-79750000D03*
X124250000Y-82250000D03*
%TD*%
D13*
%TO.C,R2*%
X140707107Y-127042893D03*
X139292893Y-128457107D03*
%TD*%
D10*
%TO.C,R31*%
X122500000Y-137750000D03*
X122500000Y-135750000D03*
%TD*%
D17*
%TO.C,R7*%
X147500000Y-131000000D03*
X149500000Y-131000000D03*
%TD*%
D15*
%TO.C,C2*%
X158000000Y-71287500D03*
X158000000Y-69212500D03*
%TD*%
D22*
%TO.C,R21*%
X120000000Y-97250000D03*
X120000000Y-99250000D03*
%TD*%
D23*
%TO.C,U1*%
X161300000Y-77750000D03*
X160500000Y-77750000D03*
X159700000Y-77750000D03*
X158900000Y-77750000D03*
X158100000Y-77750000D03*
X157300000Y-77750000D03*
X156500000Y-77750000D03*
X155700000Y-77750000D03*
D24*
X154250000Y-79200000D03*
X154250000Y-80000000D03*
X154250000Y-80800000D03*
X154250000Y-81600000D03*
X154250000Y-82400000D03*
X154250000Y-83200000D03*
X154250000Y-84000000D03*
X154250000Y-84800000D03*
D23*
X155700000Y-86250000D03*
X156500000Y-86250000D03*
X157300000Y-86250000D03*
X158100000Y-86250000D03*
X158900000Y-86250000D03*
X159700000Y-86250000D03*
X160500000Y-86250000D03*
X161300000Y-86250000D03*
D24*
X162750000Y-84800000D03*
X162750000Y-84000000D03*
X162750000Y-83200000D03*
X162750000Y-82400000D03*
X162750000Y-81600000D03*
X162750000Y-80800000D03*
X162750000Y-80000000D03*
X162750000Y-79200000D03*
%TD*%
D22*
%TO.C,R10*%
X152750000Y-135750000D03*
X152750000Y-137750000D03*
%TD*%
D20*
%TO.C,Q2*%
X117562500Y-122800000D03*
X117562500Y-124700000D03*
X119437500Y-123750000D03*
%TD*%
D15*
%TO.C,C15*%
X127000000Y-137787500D03*
X127000000Y-135712500D03*
%TD*%
D10*
%TO.C,R30*%
X118500000Y-137750000D03*
X118500000Y-135750000D03*
%TD*%
D16*
%TO.C,C5*%
X156287500Y-89000000D03*
X154212500Y-89000000D03*
%TD*%
D15*
%TO.C,C1*%
X154500000Y-71287500D03*
X154500000Y-69212500D03*
%TD*%
D17*
%TO.C,R15*%
X138000000Y-102500000D03*
X140000000Y-102500000D03*
%TD*%
D25*
%TO.C,L2*%
X140200000Y-92750000D03*
X145800000Y-92750000D03*
%TD*%
D19*
%TO.C,C12*%
X128212500Y-89500000D03*
X130287500Y-89500000D03*
%TD*%
D17*
%TO.C,R6*%
X147500000Y-133000000D03*
X149500000Y-133000000D03*
%TD*%
D26*
%TO.C,X1*%
X158100000Y-74250000D03*
X154400000Y-74250000D03*
%TD*%
D11*
%TO.C,R13*%
X161750000Y-129250000D03*
X159750000Y-129250000D03*
%TD*%
D15*
%TO.C,C3*%
X160750000Y-75287500D03*
X160750000Y-73212500D03*
%TD*%
D27*
%TO.C,U7*%
X123500000Y-108250000D03*
D28*
X121215000Y-115429000D03*
D27*
X118930000Y-108250000D03*
%TD*%
D22*
%TO.C,R32*%
X115500000Y-119000000D03*
X115500000Y-121000000D03*
%TD*%
D19*
%TO.C,C13*%
X120712500Y-130000000D03*
X122787500Y-130000000D03*
%TD*%
D29*
%TO.C,U5*%
X122050000Y-88750000D03*
X123000000Y-88750000D03*
X123950000Y-88750000D03*
X123950000Y-86250000D03*
X122050000Y-86250000D03*
%TD*%
D10*
%TO.C,R25*%
X164750000Y-75250000D03*
X164750000Y-73250000D03*
%TD*%
D17*
%TO.C,R26*%
X120750000Y-128000000D03*
X122750000Y-128000000D03*
%TD*%
D11*
%TO.C,R12*%
X161750000Y-125750000D03*
X159750000Y-125750000D03*
%TD*%
D10*
%TO.C,R35*%
X133000000Y-131000000D03*
X133000000Y-129000000D03*
%TD*%
D14*
%TO.C,C10*%
X129250000Y-103712500D03*
X129250000Y-105787500D03*
%TD*%
D10*
%TO.C,R11*%
X158750000Y-137750000D03*
X158750000Y-135750000D03*
%TD*%
%TO.C,R20*%
X115250000Y-91250000D03*
X115250000Y-89250000D03*
%TD*%
D11*
%TO.C,R1*%
X168750000Y-75000000D03*
X166750000Y-75000000D03*
%TD*%
D14*
%TO.C,C6*%
X156750000Y-135712500D03*
X156750000Y-137787500D03*
%TD*%
D15*
%TO.C,C11*%
X122000000Y-82037500D03*
X122000000Y-79962500D03*
%TD*%
D17*
%TO.C,R34*%
X120750000Y-132000000D03*
X122750000Y-132000000D03*
%TD*%
D22*
%TO.C,R28*%
X126500000Y-122500000D03*
X126500000Y-124500000D03*
%TD*%
D19*
%TO.C,C4*%
X158462500Y-89000000D03*
X160537500Y-89000000D03*
%TD*%
D30*
%TO.C,U3*%
X129250000Y-98000000D03*
X129250000Y-98650000D03*
X129250000Y-99300000D03*
X129250000Y-99950000D03*
X129250000Y-100600000D03*
X129250000Y-101250000D03*
X129250000Y-101900000D03*
X135126000Y-101900000D03*
X135126000Y-101250000D03*
X135126000Y-100600000D03*
X135126000Y-99950000D03*
X135126000Y-99300000D03*
X135126000Y-98650000D03*
X135126000Y-98000000D03*
D31*
X132188000Y-99950000D03*
%TD*%
D32*
%TO.C,D1*%
X134500000Y-96000000D03*
X132000000Y-96000000D03*
%TD*%
D22*
%TO.C,R24*%
X162750000Y-73250000D03*
X162750000Y-75250000D03*
%TD*%
D14*
%TO.C,C16*%
X120500000Y-135712500D03*
X120500000Y-137787500D03*
%TD*%
D10*
%TO.C,R18*%
X135250000Y-105750000D03*
X135250000Y-103750000D03*
%TD*%
D33*
%TO.C,R3*%
X143292893Y-127042893D03*
X144707107Y-128457107D03*
%TD*%
D10*
%TO.C,R19*%
X117750000Y-103000000D03*
X117750000Y-101000000D03*
%TD*%
%TO.C,R33*%
X113500000Y-121000000D03*
X113500000Y-119000000D03*
%TD*%
D16*
%TO.C,C8*%
X145787500Y-87250000D03*
X143712500Y-87250000D03*
%TD*%
D11*
%TO.C,R16*%
X140000000Y-100500000D03*
X138000000Y-100500000D03*
%TD*%
D22*
%TO.C,R27*%
X124500000Y-122500000D03*
X124500000Y-124500000D03*
%TD*%
D10*
%TO.C,R8*%
X154750000Y-137750000D03*
X154750000Y-135750000D03*
%TD*%
D15*
%TO.C,C14*%
X122500000Y-124537500D03*
X122500000Y-122462500D03*
%TD*%
D34*
%TO.C,J14*%
X117555000Y-81250000D03*
D35*
X117555000Y-83270000D03*
D36*
X117555000Y-84500000D03*
D34*
X117555000Y-82250000D03*
D35*
X117555000Y-80230000D03*
D36*
X117555000Y-79000000D03*
%TD*%
D22*
%TO.C,R23*%
X166750000Y-90500000D03*
X166750000Y-92500000D03*
%TD*%
D17*
%TO.C,R9*%
X147500000Y-135000000D03*
X149500000Y-135000000D03*
%TD*%
D12*
%TO.C,U4*%
X125328000Y-126190000D03*
X125328000Y-127460000D03*
X125328000Y-128730000D03*
X125328000Y-130000000D03*
X125328000Y-131270000D03*
X125328000Y-132540000D03*
X125328000Y-133810000D03*
X130750000Y-133810000D03*
X130750000Y-132540000D03*
X130750000Y-131270000D03*
X130750000Y-130000000D03*
X130750000Y-128730000D03*
X130750000Y-127460000D03*
X130750000Y-126190000D03*
%TD*%
D37*
%TO.C,C17*%
X135000000Y-92550000D03*
X135000000Y-86950000D03*
%TD*%
M02*
