M48
; DRILL file {KiCad 7.0.8} date Fri May  3 09:25:50 2024
; FORMAT={-:-/ absolute / metric / decimal}
; #@! TF.CreationDate,2024-05-03T09:25:50+02:00
; #@! TF.GenerationSoftware,Kicad,Pcbnew,7.0.8
; #@! TF.FileFunction,Plated,1,2,PTH
FMAT,2
METRIC
; #@! TA.AperFunction,Plated,PTH,ViaDrill
T1C0.400
; #@! TA.AperFunction,Plated,PTH,ComponentDrill
T2C0.500
; #@! TA.AperFunction,Plated,PTH,ComponentDrill
T3C0.750
; #@! TA.AperFunction,Plated,PTH,ComponentDrill
T4C0.900
%
G90
G05
T1
X115.25Y-92.75
X116.0Y-79.0
X116.0Y-84.5
X117.75Y-104.5
X119.25Y-113.0
X119.25Y-114.0
X119.25Y-115.0
X119.25Y-116.0
X119.25Y-117.0
X119.25Y-118.0
X120.25Y-113.0
X120.25Y-114.0
X120.25Y-115.0
X120.25Y-116.0
X120.25Y-117.0
X120.25Y-118.0
X121.25Y-113.0
X121.25Y-114.0
X121.25Y-115.0
X121.25Y-116.0
X121.25Y-117.0
X121.25Y-118.0
X122.25Y-113.0
X122.25Y-114.0
X122.25Y-115.0
X122.25Y-116.0
X122.25Y-117.0
X122.25Y-118.0
X123.25Y-113.0
X123.25Y-114.0
X123.25Y-115.0
X123.25Y-116.0
X123.25Y-117.0
X123.25Y-118.0
X123.75Y-90.5
X123.75Y-96.0
X123.75Y-101.0
X124.0Y-102.5
X124.5Y-121.25
X126.914Y-132.914
X127.75Y-100.75
X127.75Y-102.0
X129.25Y-126.25
X129.25Y-129.25
X129.25Y-132.0
X130.75Y-105.75
X130.75Y-125.0
X132.25Y-98.0
X132.25Y-102.0
X132.25Y-133.75
X133.25Y-87.75
X133.25Y-109.5
X134.25Y-130.0
X135.0Y-127.25
X136.5Y-87.75
X136.5Y-97.75
X138.5Y-109.5
X141.25Y-99.75
X142.0Y-129.75
X142.25Y-87.25
X143.25Y-85.5
X146.75Y-129.0
X147.25Y-80.75
X147.25Y-85.0
X149.0Y-84.0
X150.25Y-124.25
X150.5Y-107.75
X150.5Y-111.0
X154.0Y-107.75
X154.0Y-111.0
X154.75Y-139.025
X155.5Y-123.25
X155.5Y-127.0
X156.0Y-129.0
X157.35Y-84.75
X158.0Y-79.25
X158.75Y-84.0
X159.75Y-122.75
X160.25Y-84.25
X160.5Y-70.5
X161.25Y-82.25
X161.25Y-83.25
X161.25Y-85.0
X162.025Y-76.75
X163.0Y-77.75
X164.5Y-77.75
X168.0Y-77.75
T3
X117.5Y-128.25
X117.5Y-130.25
X117.5Y-132.25
X118.75Y-93.3
X120.75Y-93.3
X122.25Y-71.75
X124.25Y-71.75
X126.25Y-71.75
X127.95Y-84.0
X127.95Y-86.0
X128.2Y-78.2
X128.25Y-71.75
X130.2Y-78.2
X138.25Y-71.75
X138.25Y-79.0
X140.25Y-71.75
X140.25Y-79.0
X140.25Y-135.75
X142.25Y-71.75
X142.25Y-79.0
X142.25Y-135.75
X144.25Y-71.75
X144.25Y-79.0
X150.75Y-88.25
X150.75Y-90.25
X150.75Y-92.25
X150.75Y-94.25
X150.75Y-96.25
X157.5Y-92.75
X157.5Y-98.25
X159.5Y-92.75
X159.5Y-98.25
X165.0Y-128.251
X165.0Y-130.251
X165.0Y-132.251
X166.5Y-78.75
X166.5Y-80.75
X166.5Y-82.75
X166.5Y-84.75
T4
X129.0Y-119.0
X131.5Y-116.5
X131.5Y-121.5
X136.5Y-121.925
X139.0Y-124.425
X141.5Y-121.925
T2
X114.1Y-77.43G85X113.4Y-77.43
G05
X114.1Y-86.07G85X113.4Y-86.07
G05
X117.9Y-77.43G85X117.2Y-77.43
G05
X117.9Y-86.07G85X117.2Y-86.07
G05
T0
M30
