%TF.GenerationSoftware,KiCad,Pcbnew,7.0.8*%
%TF.CreationDate,2024-05-03T09:25:55+02:00*%
%TF.ProjectId,SPROJ2 G3_1,5350524f-4a32-4204-9733-5f312e6b6963,rev?*%
%TF.SameCoordinates,Original*%
%TF.FileFunction,Drillmap*%
%TF.FilePolarity,Positive*%
%FSLAX45Y45*%
G04 Gerber Fmt 4.5, Leading zero omitted, Abs format (unit mm)*
G04 Created by KiCad (PCBNEW 7.0.8) date 2024-05-03 09:25:55*
%MOMM*%
%LPD*%
G01*
G04 APERTURE LIST*
%ADD10C,0.200000*%
G04 APERTURE END LIST*
D10*
X11375000Y-14150000D02*
X16875000Y-14150000D01*
X17075000Y-11500000D02*
X16692157Y-11500000D01*
X11175000Y-6950000D02*
X11175000Y-9400000D01*
X11585000Y-7000000D02*
G75*
G03*
X11585000Y-7000000I-160000J0D01*
G01*
X11375000Y-6750000D02*
G75*
G03*
X11175000Y-6950000I0J-200000D01*
G01*
X16875000Y-6750000D02*
X11375000Y-6750000D01*
X17075000Y-9400000D02*
X17075000Y-6950000D01*
X16985000Y-13900000D02*
G75*
G03*
X16985000Y-13900000I-160000J0D01*
G01*
X11175000Y-11500000D02*
X11175000Y-13950000D01*
X16692157Y-11500000D02*
X16692157Y-9400000D01*
X17075000Y-6950000D02*
G75*
G03*
X16875000Y-6750000I-200000J0D01*
G01*
X16692157Y-9400000D02*
X17075000Y-9400000D01*
X17075000Y-13950000D02*
X17075000Y-11500000D01*
X16875000Y-14150000D02*
G75*
G03*
X17075000Y-13950000I0J200000D01*
G01*
X11175000Y-9400000D02*
X11557843Y-9400000D01*
X16985000Y-7000000D02*
G75*
G03*
X16985000Y-7000000I-160000J0D01*
G01*
X11557843Y-11500000D02*
X11175000Y-11500000D01*
X11557843Y-9400000D02*
X11557843Y-11500000D01*
X11585000Y-13900000D02*
G75*
G03*
X11585000Y-13900000I-160000J0D01*
G01*
X11175000Y-13950000D02*
G75*
G03*
X11375000Y-14150000I200000J0D01*
G01*
X11425777Y-14471484D02*
X11425777Y-14271484D01*
X11425777Y-14271484D02*
X11473396Y-14271484D01*
X11473396Y-14271484D02*
X11501967Y-14281008D01*
X11501967Y-14281008D02*
X11521015Y-14300055D01*
X11521015Y-14300055D02*
X11530539Y-14319103D01*
X11530539Y-14319103D02*
X11540062Y-14357198D01*
X11540062Y-14357198D02*
X11540062Y-14385769D01*
X11540062Y-14385769D02*
X11530539Y-14423865D01*
X11530539Y-14423865D02*
X11521015Y-14442912D01*
X11521015Y-14442912D02*
X11501967Y-14461960D01*
X11501967Y-14461960D02*
X11473396Y-14471484D01*
X11473396Y-14471484D02*
X11425777Y-14471484D01*
X11625777Y-14471484D02*
X11625777Y-14338150D01*
X11625777Y-14376246D02*
X11635301Y-14357198D01*
X11635301Y-14357198D02*
X11644824Y-14347674D01*
X11644824Y-14347674D02*
X11663872Y-14338150D01*
X11663872Y-14338150D02*
X11682920Y-14338150D01*
X11749586Y-14471484D02*
X11749586Y-14338150D01*
X11749586Y-14271484D02*
X11740062Y-14281008D01*
X11740062Y-14281008D02*
X11749586Y-14290531D01*
X11749586Y-14290531D02*
X11759110Y-14281008D01*
X11759110Y-14281008D02*
X11749586Y-14271484D01*
X11749586Y-14271484D02*
X11749586Y-14290531D01*
X11873396Y-14471484D02*
X11854348Y-14461960D01*
X11854348Y-14461960D02*
X11844824Y-14442912D01*
X11844824Y-14442912D02*
X11844824Y-14271484D01*
X11978158Y-14471484D02*
X11959110Y-14461960D01*
X11959110Y-14461960D02*
X11949586Y-14442912D01*
X11949586Y-14442912D02*
X11949586Y-14271484D01*
X12206729Y-14471484D02*
X12206729Y-14271484D01*
X12206729Y-14271484D02*
X12273396Y-14414341D01*
X12273396Y-14414341D02*
X12340062Y-14271484D01*
X12340062Y-14271484D02*
X12340062Y-14471484D01*
X12521015Y-14471484D02*
X12521015Y-14366722D01*
X12521015Y-14366722D02*
X12511491Y-14347674D01*
X12511491Y-14347674D02*
X12492443Y-14338150D01*
X12492443Y-14338150D02*
X12454348Y-14338150D01*
X12454348Y-14338150D02*
X12435301Y-14347674D01*
X12521015Y-14461960D02*
X12501967Y-14471484D01*
X12501967Y-14471484D02*
X12454348Y-14471484D01*
X12454348Y-14471484D02*
X12435301Y-14461960D01*
X12435301Y-14461960D02*
X12425777Y-14442912D01*
X12425777Y-14442912D02*
X12425777Y-14423865D01*
X12425777Y-14423865D02*
X12435301Y-14404817D01*
X12435301Y-14404817D02*
X12454348Y-14395293D01*
X12454348Y-14395293D02*
X12501967Y-14395293D01*
X12501967Y-14395293D02*
X12521015Y-14385769D01*
X12616253Y-14338150D02*
X12616253Y-14538150D01*
X12616253Y-14347674D02*
X12635301Y-14338150D01*
X12635301Y-14338150D02*
X12673396Y-14338150D01*
X12673396Y-14338150D02*
X12692443Y-14347674D01*
X12692443Y-14347674D02*
X12701967Y-14357198D01*
X12701967Y-14357198D02*
X12711491Y-14376246D01*
X12711491Y-14376246D02*
X12711491Y-14433388D01*
X12711491Y-14433388D02*
X12701967Y-14452436D01*
X12701967Y-14452436D02*
X12692443Y-14461960D01*
X12692443Y-14461960D02*
X12673396Y-14471484D01*
X12673396Y-14471484D02*
X12635301Y-14471484D01*
X12635301Y-14471484D02*
X12616253Y-14461960D01*
X12797205Y-14452436D02*
X12806729Y-14461960D01*
X12806729Y-14461960D02*
X12797205Y-14471484D01*
X12797205Y-14471484D02*
X12787682Y-14461960D01*
X12787682Y-14461960D02*
X12797205Y-14452436D01*
X12797205Y-14452436D02*
X12797205Y-14471484D01*
X12797205Y-14347674D02*
X12806729Y-14357198D01*
X12806729Y-14357198D02*
X12797205Y-14366722D01*
X12797205Y-14366722D02*
X12787682Y-14357198D01*
X12787682Y-14357198D02*
X12797205Y-14347674D01*
X12797205Y-14347674D02*
X12797205Y-14366722D01*
M02*
